<?xml version="1.0" standalone="no"?>
<!DOCTYPE svg PUBLIC "-//W3C//DTD SVG 20010904//EN"
 "http://www.w3.org/TR/2001/REC-SVG-20010904/DTD/svg10.dtd">
<svg version="1.0" xmlns="http://www.w3.org/2000/svg"
 width="381.000000pt" height="600.000000pt" viewBox="0 0 381.000000 600.000000"
 preserveAspectRatio="xMidYMid meet">

<g transform="translate(0.000000,600.000000) scale(0.100000,-0.100000)"
fill="#000000" stroke="none">
<path d="M383 5889 c-129 -22 -217 -77 -266 -168 -60 -109 -57 19 -57 -2619 0
-1594 4 -2439 10 -2482 22 -137 95 -236 209 -282 54 -22 71 -23 404 -26 l348
-3 -15 30 c-35 67 -46 151 -46 359 l0 202 -395 0 -395 0 0 275 0 274 115 3
c70 2 114 7 113 13 -2 6 -12 9 -23 7 -15 -1 -17 0 -6 7 20 13 142 13 157 0 7
-6 19 -9 26 -6 8 4 7 6 -4 6 -10 1 -18 5 -18 10 0 5 16 5 38 0 56 -13 72 -11
66 6 -5 12 3 15 39 15 24 0 65 3 91 6 41 6 46 5 45 -12 0 -11 -3 -14 -5 -8 -5
12 -82 8 -99 -6 -6 -5 -22 -7 -36 -4 -16 3 -13 0 11 -11 25 -12 56 -16 110
-14 41 1 91 2 110 1 47 -1 60 13 60 67 0 63 -10 75 -51 65 -19 -4 -113 -8
-209 -9 -136 -1 -183 -5 -210 -17 -24 -11 -83 -19 -178 -24 l-142 -7 0 567 0
566 48 2 c26 0 55 1 65 0 9 -1 17 3 17 9 0 5 -4 8 -8 5 -4 -2 -14 -1 -22 5
-10 6 -11 9 -2 9 6 0 12 9 12 19 0 10 7 22 17 25 14 6 12 11 -12 36 -20 21
-26 36 -23 54 4 17 1 26 -8 26 -7 0 -18 9 -24 20 -6 12 -21 20 -36 20 -14 0
-23 4 -19 10 9 14 66 8 61 -7 -3 -7 -1 -15 4 -18 6 -4 10 1 10 9 0 9 5 15 11
14 6 -2 16 5 22 14 9 13 8 20 -2 30 -9 8 -12 9 -7 1 3 -6 2 -14 -4 -18 -5 -3
-10 -1 -10 5 0 7 -7 5 -16 -4 -17 -18 -39 -22 -29 -6 4 6 3 10 -2 9 -21 -4
-43 2 -43 12 0 6 9 8 21 4 14 -5 19 -3 15 3 -9 15 13 26 28 13 18 -15 28 -2
11 15 -7 8 -22 11 -32 8 -17 -5 -17 -5 0 6 11 7 30 10 43 7 19 -3 24 -1 22 12
-2 9 -12 17 -23 17 -11 1 -29 5 -39 10 -14 5 -17 4 -12 -4 4 -7 3 -12 -2 -12
-6 0 -13 8 -16 17 -4 10 -4 14 0 11 3 -4 22 4 40 19 19 14 34 20 34 14 0 -6
-10 -16 -22 -21 -16 -6 -18 -9 -7 -9 22 -1 41 23 34 42 -4 9 -14 13 -26 10
-10 -3 -19 0 -19 6 0 6 6 11 13 11 8 0 7 3 -3 9 -8 6 -17 8 -20 6 -3 -1 -11 3
-17 11 -11 11 -7 14 22 20 19 3 35 10 35 15 0 5 -4 9 -8 9 -5 0 -16 6 -26 13
-16 12 -15 13 12 11 16 -1 36 2 43 7 12 7 12 9 0 9 -11 0 -11 3 -1 15 11 13
15 13 22 3 7 -9 8 -6 5 10 -4 15 -1 22 6 20 7 -2 22 6 34 19 17 17 19 23 7 23
-8 0 -17 -6 -20 -14 -3 -8 -27 -17 -56 -21 -28 -4 -58 -15 -68 -25 -10 -10
-21 -16 -24 -13 -6 7 19 33 33 33 5 0 13 4 16 10 3 6 -1 7 -9 4 -10 -4 -16 -1
-16 7 0 8 -6 5 -15 -7 -13 -18 -14 -16 -13 23 1 30 5 40 15 36 7 -3 13 -1 13
5 0 6 -6 12 -12 14 -16 6 -18 58 -2 58 7 0 14 7 18 15 3 8 12 15 20 15 8 0 17
4 20 9 3 5 -9 9 -28 8 -23 -1 -32 -5 -29 -14 3 -7 0 -13 -6 -13 -6 0 -11 9
-11 20 0 20 7 20 393 20 l392 0 3 82 c2 64 -1 79 -10 70 -21 -21 -57 -14 -64
12 -8 32 2 46 32 46 22 0 24 3 24 54 0 30 -4 58 -10 61 -5 3 -10 -1 -10 -9 0
-9 -4 -16 -10 -16 -5 0 -10 14 -10 30 0 30 14 41 23 18 10 -30 16 5 18 115 1
64 6 117 10 117 4 0 7 23 7 50 1 48 0 50 -26 51 -20 0 -23 2 -10 7 13 5 15 11
8 22 -7 10 -10 11 -10 3 0 -9 -22 -13 -77 -12 -53 0 -72 3 -58 9 18 8 17 9 -7
9 -14 1 -29 -5 -31 -11 -4 -10 -6 -10 -6 0 -1 7 -16 12 -40 12 -22 0 -42 5
-44 13 -4 9 -8 8 -17 -3 -8 -11 -13 -12 -16 -3 -3 7 -12 9 -20 6 -7 -3 -12 -9
-9 -14 7 -10 -106 0 -120 11 -6 5 -17 5 -25 0 -12 -8 -12 -10 4 -10 37 0 7
-12 -41 -16 -46 -4 -47 -4 -23 10 l25 14 -29 4 c-16 1 -31 10 -34 18 -4 12 -2
13 9 3 15 -15 68 -17 89 -3 11 7 4 10 -27 10 -23 0 -65 5 -94 11 -36 8 -58 8
-73 1 -11 -6 -36 -14 -53 -17 l-33 -7 0 51 c0 46 2 51 23 51 16 0 18 3 9 9
-21 13 5 17 63 10 28 -3 41 -7 31 -7 -15 -2 -17 -5 -9 -13 7 -7 20 -8 34 -3
27 9 71 13 209 19 52 2 120 9 150 15 30 6 62 10 70 9 54 -4 113 0 122 9 8 8 4
10 -13 6 l-24 -5 23 13 c19 9 25 9 31 -1 12 -20 46 -9 49 16 2 17 -3 23 -27
28 -42 9 -47 22 -11 30 16 4 30 12 31 18 0 7 2 20 4 30 3 16 -3 18 -43 17 -26
-2 -53 -2 -59 -1 -18 2 -16 28 3 35 23 9 36 7 29 -4 -4 -6 10 -9 37 -9 27 1
34 3 18 6 -14 3 -29 9 -35 15 -7 8 -6 9 3 4 6 -4 12 -3 12 2 0 5 -15 14 -32
20 l-33 12 33 -5 c18 -3 31 -1 28 4 -3 4 6 6 19 3 27 -5 35 -22 10 -22 -8 0
-15 -4 -15 -10 0 -12 10 -13 28 -1 20 12 11 45 -13 50 -11 2 -23 8 -27 15 -6
8 -11 7 -19 -4 -9 -12 -10 -12 -5 4 5 15 2 17 -18 12 -14 -3 -27 -2 -31 3 -3
5 9 12 27 14 23 3 18 4 -19 5 -28 1 -55 -2 -58 -8 -3 -5 -11 -10 -18 -10 -6 0
-2 7 9 15 18 14 18 14 -8 15 -15 0 -30 5 -33 10 -4 6 5 10 19 10 24 0 25 2 14
23 -14 24 -35 40 -58 43 -8 1 -35 5 -60 8 -44 7 -44 7 -20 -9 l25 -15 -30 6
c-16 4 -32 11 -33 16 -2 5 -11 3 -20 -4 -12 -10 -16 -10 -19 0 -6 15 -96 16
-124 2 -13 -7 -19 -7 -19 0 0 6 -42 10 -115 10 l-115 0 0 280 0 280 393 0 392
0 13 77 c24 150 99 259 218 315 118 55 156 58 847 58 564 1 630 2 612 16 -11
8 -49 25 -85 37 l-65 22 -1035 1 c-569 1 -1058 -2 -1087 -7z m-13 -1123 c0 -3
-4 -8 -10 -11 -5 -3 -10 -1 -10 4 0 6 5 11 10 11 6 0 10 -2 10 -4z m343 -43
c-7 -2 -21 -2 -30 0 -10 3 -4 5 12 5 17 0 24 -2 18 -5z m-150 -40 c-7 -2 -19
-2 -25 0 -7 3 -2 5 12 5 14 0 19 -2 13 -5z m147 -11 c0 -5 -7 -9 -15 -9 -8 0
-12 4 -9 9 3 4 9 8 15 8 5 0 9 -4 9 -8z m-223 -18 c-3 -3 -12 -4 -19 -1 -8 3
-5 6 6 6 11 1 17 -2 13 -5z m360 -11 c-9 -2 -15 -8 -12 -13 3 -4 -4 -6 -15 -3
-32 8 -23 23 13 22 17 -1 24 -3 14 -6z m-317 -13 c0 -5 -5 -10 -11 -10 -5 0
-7 5 -4 10 3 6 8 10 11 10 2 0 4 -4 4 -10z m93 3 c-7 -2 -21 -2 -30 0 -10 3
-4 5 12 5 17 0 24 -2 18 -5z m112 -50 c18 -14 18 -15 2 -9 -10 3 -28 6 -40 6
-18 0 -19 2 -7 10 19 13 21 12 45 -7z m93 -3 c-7 -11 -17 -20 -22 -20 -4 0 -2
8 5 17 13 15 12 16 -8 11 -13 -4 -23 -2 -23 3 0 5 14 9 30 9 28 0 29 -2 18
-20z m-341 -36 c-3 -3 -12 -4 -19 -1 -8 3 -5 6 6 6 11 1 17 -2 13 -5z m118
-14 c-21 -5 -24 -8 -10 -9 19 -2 18 -3 -2 -11 -32 -13 -29 -22 5 -14 24 6 25
5 14 -8 -9 -11 -21 -14 -39 -9 -31 8 -43 31 -16 32 10 0 13 3 5 6 -23 9 -1 23
36 22 l37 -1 -30 -8z m-78 -6 c-3 -3 -12 -4 -19 -1 -8 3 -5 6 6 6 11 1 17 -2
13 -5z m290 0 c-3 -3 -12 -4 -19 -1 -8 3 -5 6 6 6 11 1 17 -2 13 -5z m-370
-10 c-3 -3 -12 -4 -19 -1 -8 3 -5 6 6 6 11 1 17 -2 13 -5z m313 -4 c12 -8 11
-10 -7 -10 -13 0 -23 5 -23 10 0 13 11 13 30 0z m125 -10 c-3 -5 -15 -10 -26
-10 -11 0 -17 5 -14 10 3 6 15 10 26 10 11 0 17 -4 14 -10z m-110 -20 c-4 -7
3 -8 21 -4 19 5 25 4 20 -5 -10 -16 -41 -14 -56 4 -10 12 -9 15 4 15 10 0 14
-5 11 -10z m-7 -55 c3 -3 -10 -5 -29 -5 -19 -1 -51 -3 -73 -6 -25 -4 -36 -2
-32 4 3 6 -2 12 -11 14 -10 2 17 3 61 1 43 -1 81 -5 84 -8z m-238 -25 c-20
-13 -53 -13 -45 0 3 6 18 10 33 10 21 0 24 -2 12 -10z m127 -6 c-3 -3 -12 -4
-19 -1 -8 3 -5 6 6 6 11 1 17 -2 13 -5z m-350 -176 c-17 -11 -67 -10 -67 1 0
6 18 9 40 8 23 -1 34 -4 27 -9z m386 -15 c-7 -2 -19 -2 -25 0 -7 3 -2 5 12 5
14 0 19 -2 13 -5z m-423 -19 c0 -2 -15 -4 -32 -3 -27 0 -29 2 -13 8 18 8 45 4
45 -5z m67 10 c-3 -3 -12 -4 -19 -1 -8 3 -5 6 6 6 11 1 17 -2 13 -5z m193 -14
c0 -5 -2 -10 -4 -10 -3 0 -8 5 -11 10 -3 6 -1 10 4 10 6 0 11 -4 11 -10z m218
-7 c-10 -2 -28 -2 -40 0 -13 2 -5 4 17 4 22 1 32 -1 23 -4z m145 0 c-13 -2
-35 -2 -50 0 -16 2 -5 4 22 4 28 0 40 -2 28 -4z m-140 -100 c-7 -2 -19 -2 -25
0 -7 3 -2 5 12 5 14 0 19 -2 13 -5z m-265 -199 c94 -56 94 -187 0 -244 -118
-72 -257 66 -193 191 33 62 132 90 193 53z m342 -16 c0 -5 -4 -8 -10 -8 -5 0
-11 -15 -12 -32 l-1 -33 -4 33 c-2 17 -8 32 -14 32 -5 0 -9 3 -9 8 0 4 11 7
25 7 14 0 25 -3 25 -7z m59 -2 c10 -12 8 -13 -8 -9 -17 4 -21 1 -21 -21 0 -28
9 -33 28 -14 8 8 12 8 12 1 0 -17 -31 -25 -46 -12 -17 14 -18 41 -2 57 16 16
23 15 37 -2z m-235 -10 c7 19 8 19 22 0 12 -17 14 -18 14 -3 0 9 4 17 9 17 6
0 6 -12 0 -32 -5 -18 -9 -35 -9 -38 -1 -3 -7 6 -14 19 l-14 24 -7 -24 c-8 -23
-8 -23 -16 -4 -4 11 -8 29 -8 40 0 19 1 19 8 1 7 -19 8 -19 15 0z m116 -30 c0
-6 -11 -11 -25 -11 -28 0 -30 7 -14 37 11 21 12 21 25 3 8 -10 14 -24 14 -29z
m-114 -119 l11 -32 9 33 c5 17 12 32 17 32 10 0 9 -4 -4 -50 -15 -51 -33 -51
-47 -1 -21 69 -9 84 14 18z m154 -8 c0 -49 -1 -50 -27 -47 -22 2 -29 9 -31 31
-3 22 1 30 17 34 12 3 21 12 21 19 0 8 5 14 10 14 6 0 10 -23 10 -51z m-80
-14 c0 -19 -4 -35 -10 -35 -5 0 -10 16 -10 35 0 19 5 35 10 35 6 0 10 -16 10
-35z m148 13 c2 -13 -3 -18 -18 -18 -12 0 -19 -4 -15 -10 3 -5 12 -7 20 -3 8
3 15 0 15 -7 0 -6 -11 -10 -27 -8 -28 3 -40 25 -29 54 8 21 50 14 54 -8z
m-678 -457 c0 -6 -4 -12 -8 -15 -5 -3 -9 1 -9 9 0 8 4 15 9 15 4 0 8 -4 8 -9z
m-3 -236 c0 -8 -4 -12 -9 -9 -4 3 -8 9 -8 15 0 5 4 9 8 9 5 0 9 -7 9 -15z m8
-115 c3 -5 1 -10 -4 -10 -6 0 -11 5 -11 10 0 6 2 10 4 10 3 0 8 -4 11 -10z
m45 -29 c0 -5 -7 -11 -14 -14 -10 -4 -13 -1 -9 9 6 15 23 19 23 5z m-47 -42
c-8 -8 -13 -7 -18 2 -5 8 -4 10 3 5 7 -4 12 -2 12 5 0 7 3 9 7 6 4 -4 2 -12
-4 -18z m40 -20 c-15 -15 -63 -20 -63 -7 0 5 9 7 19 3 11 -3 22 -1 26 5 3 5
11 10 18 10 8 0 8 -3 0 -11z m-3 -99 c0 -5 -2 -10 -4 -10 -3 0 -8 5 -11 10 -3
6 -1 10 4 10 6 0 11 -4 11 -10z m650 -1175 c-44 -17 -60 -18 -60 -4 0 5 4 8 9
4 5 -3 12 -1 16 5 3 5 21 10 38 9 l32 -1 -35 -13z"/>
<path d="M374 3861 c-11 -5 -33 -23 -47 -41 -49 -57 -30 -142 39 -175 49 -23
99 -14 139 25 25 26 30 38 30 80 0 42 -5 54 -31 81 -33 33 -91 46 -130 30z
m106 -112 c0 -5 -85 -49 -95 -49 -3 0 -5 25 -5 55 l0 55 50 -28 c27 -15 50
-29 50 -33z"/>
<path d="M766 3691 c-8 -13 4 -42 15 -35 12 7 12 44 0 44 -6 0 -12 -4 -15 -9z"/>
<path d="M840 3690 c0 -5 5 -10 10 -10 6 0 10 5 10 10 0 6 -4 10 -10 10 -5 0
-10 -4 -10 -10z"/>
<path d="M2330 5645 c-17 -20 -5 -45 20 -45 11 0 23 7 26 15 6 15 -11 45 -26
45 -4 0 -13 -7 -20 -15z"/>
<path d="M1875 5466 c-21 -31 -5 -66 28 -66 46 0 66 59 28 80 -29 15 -39 13
-56 -14z"/>
<path d="M2135 5450 c-16 -26 14 -30 216 -30 202 0 209 1 209 20 0 19 -7 20
-209 20 -129 0 -212 -4 -216 -10z"/>
<path d="M1125 5098 c-3 -7 -4 -983 -3 -2168 l3 -2155 1223 -3 1222 -2 -2
2167 -3 2168 -1218 3 c-969 2 -1219 0 -1222 -10z m2425 -786 c0 -756 0 -769
-20 -787 -20 -18 -20 -17 -20 28 0 59 -18 62 -23 5 -2 -24 -4 139 -5 361 -1
222 -4 402 -6 400 -2 -2 -7 -330 -10 -729 -4 -467 -10 -726 -16 -728 -13 -5
-13 -49 0 -57 13 -8 13 -112 0 -120 -11 -7 -9 -94 3 -113 5 -7 6 -19 3 -27 -3
-8 -1 -15 4 -15 6 0 10 -5 10 -11 0 -5 -4 -7 -10 -4 -6 4 -10 -8 -10 -30 0
-26 3 -34 13 -29 9 6 9 4 -1 -8 -16 -21 -15 -638 2 -638 34 1 36 14 28 190 -5
96 -6 378 -3 625 6 420 7 450 23 450 24 0 25 -44 34 -1263 l7 -1002 -1202 0
-1201 0 0 535 c0 469 2 535 15 535 8 0 15 3 16 8 4 59 10 393 14 832 3 300 7
574 9 610 2 36 7 130 11 210 5 111 10 148 22 160 14 14 15 -18 10 -322 -4
-214 -3 -338 3 -338 6 0 10 -7 10 -16 0 -14 -3 -14 -15 -4 -13 11 -15 -9 -16
-166 -1 -99 -1 -182 0 -187 1 -4 1 -185 2 -401 l0 -394 52 5 c29 3 55 10 58
15 4 6 11 8 17 4 19 -11 26 168 23 542 l-4 372 27 0 26 0 1 -207 c1 -115 3
-224 4 -243 2 -19 6 -89 9 -155 14 -280 19 -325 32 -325 11 0 14 22 15 93 6
324 -7 776 -22 791 -11 13 -11 -82 1 -384 5 -131 6 -238 1 -243 -12 -12 -26
275 -24 482 2 99 -2 179 -7 186 -5 6 -7 27 -5 46 7 56 7 561 -1 627 -4 38 -10
59 -17 55 -6 -4 -8 3 -4 18 3 13 9 50 12 82 6 49 5 57 -9 57 -9 0 -16 -5 -16
-11 0 -5 -4 -7 -10 -4 -5 3 -10 1 -10 -6 0 -7 -3 -10 -6 -6 -3 3 -1 22 6 41
l12 36 18 -22 19 -23 13 33 c7 17 18 32 25 32 7 0 10 7 6 18 -3 9 5 2 18 -15
13 -18 27 -33 32 -33 11 0 9 58 -3 65 -6 3 -7 30 -4 64 5 42 3 60 -6 66 -10 6
-11 2 -7 -17 16 -62 -54 -27 -71 35 -8 29 -7 38 7 51 24 22 27 21 41 -16 7
-18 14 -27 17 -20 3 6 9 9 15 6 6 -4 8 1 6 12 -1 9 -7 16 -11 13 -12 -6 -29
29 -21 42 4 8 9 7 15 -2 6 -10 9 -8 9 9 0 12 -5 22 -11 22 -6 0 -9 9 -6 20 4
15 0 20 -17 20 -15 0 -25 9 -33 30 -13 35 -38 48 -64 32 -17 -11 -49 -16 -49
-9 0 4 31 69 35 75 1 1 10 0 19 -4 15 -6 15 -8 -1 -21 -16 -13 -15 -13 7 0 15
9 25 24 24 36 0 14 6 21 17 21 21 0 43 35 35 56 -4 11 -26 14 -91 14 -78 0
-85 -2 -85 -20 0 -14 7 -20 23 -20 26 0 47 -17 47 -39 0 -12 -3 -11 -18 2 -10
10 -31 17 -47 17 -25 0 -27 2 -21 30 5 29 -8 43 -17 18 -3 -10 -9 -10 -26 0
-23 14 -75 17 -53 3 10 -6 10 -10 -1 -20 -12 -9 -16 -8 -21 5 -3 8 -6 186 -6
395 l0 379 1200 0 1200 0 0 -768z m-2100 -16 c0 -17 -27 -29 -35 -16 -4 6 -3
15 0 20 9 15 35 12 35 -4z m-271 -60 c27 -42 26 -48 -1 -44 -19 2 -24 10 -26
41 -2 20 -1 37 2 37 2 0 14 -15 25 -34z m197 -133 c-10 -10 -19 5 -10 18 6 11
8 11 12 0 2 -7 1 -15 -2 -18z m-178 -53 c-14 -22 -24 -19 -15 5 4 8 11 15 17
15 6 0 6 -7 -2 -20z m-28 -30 c0 -5 -4 -10 -10 -10 -5 0 -10 5 -10 10 0 6 5
10 10 10 6 0 10 -4 10 -10z m22 -22 c-7 -7 -12 -8 -12 -2 0 14 12 26 19 19 2
-3 -1 -11 -7 -17z m150 -35 c28 -30 52 -99 38 -108 -5 -3 -26 1 -46 10 -20 8
-43 15 -51 15 -8 0 -29 11 -45 26 -17 14 -37 23 -44 20 -16 -6 -17 -4 -8 18 5
12 14 15 38 11 24 -5 38 -1 56 14 32 26 31 26 62 -6z m-159 -296 c-3 -125 -10
-227 -14 -227 -18 0 -22 58 -17 247 4 150 8 197 19 203 7 5 14 8 16 7 1 -1 -1
-105 -4 -230z m141 157 c4 -11 2 -12 -14 -1 -11 6 -20 15 -20 19 0 12 28 -3
34 -18z m134 4 c-2 -6 -10 -14 -16 -16 -7 -2 -10 2 -6 12 7 18 28 22 22 4z
m-211 -80 c-3 -7 -5 -2 -5 12 0 14 2 19 5 13 2 -7 2 -19 0 -25z m128 -275 c-3
-87 -10 -252 -15 -368 -5 -115 -12 -291 -15 -390 -7 -224 -23 -382 -42 -415
-13 -23 -13 -17 -9 65 3 50 8 173 10 275 2 102 2 163 0 135 -9 -128 -17 -180
-24 -155 -10 39 -2 227 11 251 8 15 8 24 0 32 -6 6 -11 25 -11 43 0 34 28 109
31 84 4 -28 17 174 18 280 1 81 -2 101 -11 92 -7 -7 -18 -12 -25 -12 -22 0
-14 22 17 49 25 22 30 36 35 86 8 82 14 105 26 105 6 0 8 -53 4 -157z m2158
-165 l-18 -33 -3 79 c-2 62 1 84 15 105 l18 26 3 -72 c2 -55 -1 -80 -15 -105z
m-2369 -345 c-3 -258 -8 -470 -10 -472 -2 -2 -4 208 -4 467 0 313 3 472 10
472 7 0 8 -154 4 -467z m233 135 c-2 -18 -4 -4 -4 32 0 36 2 50 4 33 2 -18 2
-48 0 -65z m-140 -140 c-3 -7 -5 -2 -5 12 0 14 2 19 5 13 2 -7 2 -19 0 -25z
m0 -210 c-3 -8 -6 -5 -6 6 -1 11 2 17 5 13 3 -3 4 -12 1 -19z m0 -75 c-3 -10
-5 -4 -5 12 0 17 2 24 5 18 2 -7 2 -21 0 -30z m0 -85 c-3 -7 -5 -2 -5 12 0 14
2 19 5 13 2 -7 2 -19 0 -25z m0 -140 c-2 -24 -4 -5 -4 42 0 47 2 66 4 43 2
-24 2 -62 0 -85z m13 -104 c0 -14 -4 -22 -10 -19 -5 3 -10 17 -10 31 0 14 4
22 10 19 6 -3 10 -17 10 -31z m-1 -106 c1 -10 -3 -18 -9 -18 -5 0 -10 17 -9
38 0 30 2 33 9 17 5 -11 9 -28 9 -37z m-1 -103 c-1 -24 -5 -42 -10 -39 -11 7
-10 84 1 84 5 0 9 -20 9 -45z m-3 -104 c-2 -35 -15 -36 -15 -2 0 18 4 30 8 27
5 -3 8 -14 7 -25z m5 -86 c0 -14 -4 -25 -10 -25 -5 0 -10 11 -10 25 0 14 5 25
10 25 6 0 10 -11 10 -25z"/>
<path d="M1436 5032 c-3 -4 9 -7 27 -5 30 2 30 2 7 -7 l-25 -9 25 2 c14 1 24
7 23 12 -3 13 -49 19 -57 7z"/>
<path d="M2205 5030 c-4 -7 -2 -17 4 -23 9 -9 11 -8 6 6 -4 9 -3 17 3 17 6 0
13 -10 15 -22 5 -21 5 -21 4 1 -2 27 -21 39 -32 21z"/>
<path d="M2287 5033 c-3 -5 -1 -17 4 -28 7 -17 8 -17 8 8 1 27 -4 34 -12 20z"/>
<path d="M2394 5024 c-4 -10 -8 -21 -10 -24 -1 -3 8 -5 21 -5 20 0 22 3 13 20
-15 29 -17 30 -24 9z"/>
<path d="M2440 5028 c0 -9 7 -22 17 -29 15 -13 15 -12 3 11 -17 34 -20 36 -20
18z"/>
<path d="M2475 5030 c-3 -5 -1 -18 4 -27 9 -16 10 -14 11 10 0 28 -5 34 -15
17z"/>
<path d="M3354 5025 c-13 -33 3 -44 65 -43 67 1 93 17 71 43 -8 10 -31 15 -72
15 -43 0 -60 -4 -64 -15z"/>
<path d="M1195 5020 c-4 -6 -3 -16 3 -22 6 -6 12 -6 17 2 4 6 3 16 -3 22 -6 6
-12 6 -17 -2z"/>
<path d="M1240 5016 c0 -9 7 -16 16 -16 9 0 14 5 12 12 -6 18 -28 21 -28 4z"/>
<path d="M1285 5020 c-4 -6 -3 -16 3 -22 6 -6 12 -6 17 2 4 6 3 16 -3 22 -6 6
-12 6 -17 -2z"/>
<path d="M2327 5010 c3 -11 7 -20 9 -20 2 0 4 9 4 20 0 11 -4 20 -9 20 -5 0
-7 -9 -4 -20z"/>
<path d="M3432 4908 c-7 -7 -12 -18 -12 -24 0 -7 -16 -15 -37 -17 l-38 -4 38
-1 c23 -1 40 -8 43 -17 4 -8 12 -15 20 -15 8 0 14 -4 14 -10 0 -5 11 0 25 12
29 25 32 50 9 72 -18 19 -45 21 -62 4z m44 -36 c1 -12 -4 -22 -10 -22 -6 0
-12 11 -12 25 -1 16 3 24 10 22 6 -2 12 -13 12 -25z"/>
<path d="M2046 4874 c-18 -17 -22 -54 -5 -54 5 0 7 4 4 10 -3 5 -1 18 4 27 8
14 11 2 11 -47 0 -46 3 -61 10 -50 12 19 13 117 1 125 -5 3 -17 -2 -25 -11z"/>
<path d="M2234 4872 c-7 -10 -8 -25 -4 -33 4 -8 5 -22 1 -32 -6 -16 -9 -16
-18 -5 -6 7 -13 22 -15 33 -4 16 -8 12 -23 -20 l-19 -40 -4 33 c-2 19 -9 32
-18 32 -8 0 -14 -5 -14 -11 0 -5 5 -7 10 -4 6 4 10 -7 10 -24 0 -36 13 -40 33
-11 13 18 16 19 27 5 10 -12 9 -15 -6 -15 -14 0 -15 -3 -6 -12 8 -8 15 -8 27
2 11 9 18 10 29 1 10 -9 16 -9 21 -1 4 6 12 7 18 3 7 -5 33 -8 60 -7 43 1 46
-1 32 -16 -17 -19 -20 -40 -4 -40 5 0 8 4 5 9 -3 5 2 15 11 22 14 12 15 11 8
-10 -5 -16 -4 -21 4 -17 6 4 11 18 11 31 0 14 9 39 20 57 l20 33 0 -27 c0 -35
13 -42 76 -42 50 -1 53 0 60 29 l7 30 4 -27 c5 -33 23 -37 23 -5 l0 22 13 -24
c13 -25 29 -30 36 -10 2 7 -1 9 -8 5 -7 -5 -11 3 -11 23 0 21 -5 31 -15 31 -8
0 -15 -6 -15 -12 0 -9 -3 -9 -8 -3 -4 6 -17 12 -29 12 -19 2 -23 -3 -23 -28 0
-16 -4 -29 -10 -29 -5 0 -10 13 -10 29 0 29 -14 42 -37 34 -7 -3 -13 -18 -13
-34 0 -16 -4 -29 -10 -29 -5 0 -10 13 -10 29 0 43 -35 49 -46 7 -7 -31 -7 -31
-11 -5 -8 52 -63 38 -63 -15 0 -9 -4 -16 -10 -16 -5 0 -10 13 -10 29 0 17 -6
31 -16 35 -22 9 -30 1 -37 -34 -9 -41 -27 -38 -27 4 0 24 5 36 18 39 15 4 15
5 0 6 -9 0 -18 8 -20 16 -2 13 -5 12 -14 -3z m84 -64 c-4 -27 -28 -36 -28 -10
0 20 8 32 22 32 5 0 8 -10 6 -22z m72 -3 c0 -14 -4 -25 -10 -25 -5 0 -10 11
-10 25 0 14 5 25 10 25 6 0 10 -11 10 -25z m138 3 c-4 -27 -28 -36 -28 -10 0
20 8 32 22 32 5 0 8 -10 6 -22z"/>
<path d="M2090 4806 c0 -19 4 -37 9 -40 11 -7 23 37 15 58 -11 28 -24 17 -24
-18z"/>
<path d="M3330 4774 l0 -35 73 3 c70 3 72 4 75 31 3 23 0 27 -23 27 -14 0 -28
-7 -31 -15 -8 -19 -30 -20 -41 -2 -4 8 -18 16 -30 19 -21 6 -23 2 -23 -28z"/>
<path d="M1306 4566 c-26 -25 -34 -60 -17 -71 6 -3 15 4 21 15 12 22 34 28 27
8 -2 -7 3 -18 12 -25 9 -6 13 -15 8 -19 -4 -4 -12 -3 -18 3 -8 8 -19 8 -38 0
-36 -15 -35 -15 -20 -33 12 -15 11 -16 -9 -10 -35 12 -26 -10 13 -29 29 -13
42 -14 70 -5 35 12 62 36 51 47 -3 3 -14 -1 -24 -10 -27 -25 -32 -21 -21 15
15 54 11 103 -10 122 -19 17 -21 17 -45 -8z"/>
<path d="M1541 4498 c1 -24 3 -27 6 -10 2 12 8 22 13 22 5 0 11 -10 13 -22 l4
-23 2 22 c0 13 -7 27 -19 33 -18 10 -20 8 -19 -22z"/>
<path d="M1641 4503 c1 -17 3 -21 6 -10 2 9 8 17 13 17 5 0 11 -8 13 -17 4
-17 5 -17 6 -1 0 10 -8 22 -19 28 -18 10 -20 8 -19 -17z"/>
<path d="M1767 4523 c-2 -5 -1 -19 4 -33 7 -23 7 -23 8 8 1 31 -3 40 -12 25z"/>
<path d="M1493 4504 c-8 -22 13 -42 30 -25 10 10 9 11 -5 6 -21 -8 -26 20 -5
28 9 4 9 6 -1 6 -7 1 -15 -6 -19 -15z"/>
<path d="M1593 4504 c-8 -22 13 -42 30 -25 10 10 9 11 -5 6 -21 -8 -26 20 -5
28 9 4 9 6 -1 6 -7 1 -15 -6 -19 -15z"/>
<path d="M1693 4504 c-8 -21 13 -42 28 -27 13 13 5 43 -11 43 -6 0 -13 -7 -17
-16z m27 -9 c0 -8 -4 -15 -10 -15 -5 0 -10 7 -10 15 0 8 5 15 10 15 6 0 10 -7
10 -15z"/>
<path d="M1797 4506 c-8 -20 20 -43 35 -28 14 14 3 42 -16 42 -7 0 -16 -6 -19
-14z m33 -11 c0 -8 -4 -15 -9 -15 -13 0 -22 16 -14 24 11 11 23 6 23 -9z"/>
<path d="M1852 4495 c0 -16 2 -22 5 -12 2 9 2 23 0 30 -3 6 -5 -1 -5 -18z"/>
<path d="M3365 4500 c-3 -5 -1 -10 4 -10 6 0 11 5 11 10 0 6 -2 10 -4 10 -3 0
-8 -4 -11 -10z"/>
<path d="M1543 4248 c7 -92 31 -402 47 -633 36 -483 47 -745 32 -745 -7 0 -12
15 -12 34 0 19 -5 38 -10 41 -8 5 -10 -52 -8 -179 2 -102 0 -186 -4 -186 -5 0
-8 82 -9 183 0 135 -3 176 -11 157 -6 -16 -7 -87 -3 -205 4 -99 7 -200 7 -225
l0 -45 9 54 c5 30 11 56 12 58 4 4 28 -455 30 -579 l2 -96 40 -5 c22 -3 40 -5
41 -4 1 1 -5 139 -12 307 -7 168 -15 429 -19 580 -6 339 -13 453 -28 462 -9 6
-9 8 1 8 6 0 12 9 12 20 0 11 -5 20 -11 20 -8 0 -9 24 -5 78 19 250 20 231 -6
241 l-23 10 23 0 c21 1 22 5 22 82 0 75 -2 83 -26 101 -33 27 -31 74 4 71 12
-2 22 2 22 7 0 6 -7 10 -15 10 -17 0 -20 25 -5 35 6 3 10 13 10 22 0 14 -2 14
-19 -1 -17 -16 -18 -15 -25 30 -3 26 -6 70 -6 98 0 29 -5 57 -11 63 -6 6 -13
56 -16 112 -5 81 -9 101 -21 101 -13 0 -14 -13 -9 -82z m102 -518 c3 -5 2 -10
-4 -10 -5 0 -13 5 -16 10 -3 6 -2 10 4 10 5 0 13 -4 16 -10z m-11 -46 c4 -10
1 -14 -6 -12 -15 5 -23 28 -10 28 5 0 13 -7 16 -16z"/>
<path d="M1678 4133 c2 -109 7 -261 12 -338 6 -98 7 -43 3 185 -3 179 -8 331
-12 338 -4 6 -5 -77 -3 -185z"/>
<path d="M1704 4253 c3 -43 10 -229 16 -413 5 -184 12 -384 14 -445 3 -81 2
-95 -4 -55 -4 30 -8 108 -9 172 -1 73 -5 119 -12 124 -8 5 -9 -23 -5 -97 8
-126 30 -661 52 -1244 9 -236 18 -432 20 -434 2 -2 10 -1 18 2 12 5 14 18 11
54 -12 135 -27 620 -21 698 10 137 10 196 3 375 -3 91 -7 247 -9 347 -2 144
-5 179 -15 171 -10 -8 -12 -4 -7 20 3 16 1 39 -5 50 -8 15 -6 23 9 37 19 17
18 41 -1 30 -13 -9 -11 19 2 32 9 9 8 19 -6 39 -13 21 -18 50 -19 121 -2 91
-1 93 21 93 26 0 31 15 8 24 -8 3 -15 1 -15 -4 0 -6 -4 -10 -10 -10 -5 0 -10
9 -10 20 0 11 5 20 10 20 12 0 13 37 1 42 -8 3 -20 149 -21 261 0 26 -5 47
-11 47 -7 0 -9 -26 -5 -77z m33 -1025 c-3 -8 -6 -5 -6 6 -1 11 2 17 5 13 3 -3
4 -12 1 -19z"/>
<path d="M1888 4270 c4 -49 2 -60 -11 -60 -13 0 -15 -20 -15 -131 -1 -72 -3
-134 -6 -137 -3 -3 -6 46 -7 109 -1 63 -5 139 -9 169 -4 30 -5 -204 -3 -520 3
-330 2 -571 -3 -567 -5 5 -11 167 -15 360 l-5 352 -2 -372 c-2 -281 1 -372 10
-375 9 -3 9 -12 -1 -36 -10 -23 -12 -74 -10 -187 2 -85 6 -155 9 -155 3 0 11
9 18 20 18 29 39 25 47 -9 4 -19 11 -28 20 -25 7 3 27 -2 44 -11 29 -14 32
-14 37 0 4 9 -5 40 -19 68 -30 61 -45 127 -28 127 6 0 11 -7 11 -15 0 -25 18
-17 28 13 10 26 10 25 11 -15 1 -38 -2 -43 -21 -43 -21 -1 -22 -2 -5 -14 9 -7
17 -23 17 -35 0 -14 6 -21 20 -21 15 0 20 -7 20 -24 0 -28 8 -35 44 -38 33 -3
42 -33 28 -90 -11 -42 -8 -62 6 -43 4 6 25 8 47 5 l40 -5 -32 -15 c-18 -8 -33
-22 -33 -30 -1 -12 -3 -11 -14 3 -8 10 -16 13 -18 7 -2 -6 -21 -17 -43 -24
-22 -8 -40 -20 -40 -28 0 -7 5 -12 11 -11 8 1 11 -31 11 -100 0 -93 -1 -98 -9
-49 -5 28 -15 52 -21 52 -13 0 -12 -125 2 -190 10 -44 4 -60 -20 -60 -17 0
-19 8 -19 72 0 86 -7 86 -15 -2 -3 -35 -8 -66 -10 -68 -2 -3 -24 -1 -48 2 -39
6 -46 11 -54 39 -12 38 -6 -219 6 -268 6 -25 12 -30 37 -30 23 0 28 4 26 20
-10 57 -13 215 -5 215 25 0 33 -29 34 -114 0 -50 6 -109 14 -131 l13 -40 2 45
c2 64 18 99 19 43 1 -44 10 -51 61 -43 20 3 19 -2 9 59 -4 30 -7 56 -5 58 2 2
15 -1 29 -6 25 -10 26 -12 21 -78 -3 -37 -7 -75 -10 -84 -2 -9 5 -27 16 -42
25 -31 25 -39 1 -61 -18 -17 -19 -17 -24 1 -4 14 -5 14 -6 -4 -1 -15 5 -23 15
-23 27 0 54 20 54 40 0 24 25 41 119 80 82 33 85 34 76 20 -10 -17 34 -11 62
8 15 9 41 22 57 27 25 8 30 15 28 35 -1 14 -5 82 -8 152 -6 124 -6 127 14 121
23 -6 32 -60 31 -201 0 -46 1 -85 3 -87 2 -2 13 -2 23 1 20 5 20 18 20 632 0
348 -4 630 -9 633 -5 4 -11 59 -14 123 -2 64 -9 116 -13 116 -5 0 -6 -13 -2
-30 3 -19 1 -30 -5 -30 -7 0 -9 -12 -6 -32 4 -25 3 -30 -5 -18 -8 11 -9 -133
-5 -515 l6 -530 -21 33 c-19 29 -21 49 -23 205 -1 97 -4 149 -7 119 -5 -47 -8
-52 -22 -40 -15 11 -18 48 -23 268 -3 140 -6 317 -6 393 0 97 -3 137 -12 137
-8 0 -10 -111 -4 -447 3 -246 4 -444 1 -441 -3 3 -8 29 -10 58 -2 29 -8 56
-14 59 -26 16 -30 77 -32 410 -2 361 0 381 37 381 30 0 34 54 32 468 l-3 417
-5 -420 c-3 -231 -6 -366 -8 -299 -2 144 -12 244 -23 244 -4 0 -10 -12 -12
-27 -2 -16 -5 49 -6 144 0 94 -4 174 -8 176 -5 3 -7 -74 -6 -171 1 -139 -1
-171 -10 -149 -6 15 -16 27 -23 27 -12 0 -24 -66 -24 -132 0 -22 -4 -37 -9
-33 -6 3 -10 60 -10 126 1 66 -2 123 -5 127 -3 3 -6 22 -6 43 0 21 -5 41 -12
45 -8 5 -9 -29 -5 -137 4 -79 9 -290 12 -469 3 -179 8 -396 11 -482 l5 -158
-23 3 c-21 2 -24 -3 -29 -48 l-6 -50 -3 40 c-5 72 -8 284 -11 688 -2 219 -6
400 -11 403 -4 3 -8 46 -8 96 0 86 2 92 29 124 25 28 31 31 41 18 7 -7 19 -14
27 -14 18 0 14 81 -5 88 -7 2 -10 -2 -6 -11 3 -8 1 -18 -5 -22 -7 -4 -11 5
-11 24 0 16 -4 33 -10 36 -5 3 -10 -2 -10 -12 0 -11 -7 -28 -15 -39 -8 -10
-15 -32 -15 -47 0 -16 -7 -30 -17 -34 -15 -6 -15 -53 -9 -587 3 -320 9 -621
13 -671 4 -62 2 -87 -5 -80 -6 6 -12 20 -14 33 -1 12 -6 21 -10 20 -5 -2 -16
13 -26 32 -16 29 -19 61 -20 195 -1 88 -4 198 -7 245 -3 47 -10 249 -15 450
-12 456 -20 592 -32 605 -10 10 -5 -694 8 -1075 l7 -184 -32 32 -32 32 3 175
c2 96 1 175 -2 175 -3 0 -4 87 -3 192 1 106 -2 208 -7 226 -5 20 -5 32 1 32
12 0 9 89 -3 96 -4 3 -8 10 -8 15 0 6 5 7 10 4 12 -8 13 17 1 30 -22 25 -51
188 -51 290 0 71 -4 105 -11 105 -13 0 -4 -441 12 -575 12 -109 29 -379 23
-385 -14 -13 -23 37 -33 184 -17 227 -20 236 -16 41 2 -93 1 -192 -3 -220 -8
-54 -24 333 -20 499 l2 91 6 -90 c6 -87 6 -86 7 40 0 72 -3 112 -6 90 -4 -24
-9 -35 -14 -28 -8 12 1 64 12 73 9 7 1 280 -8 280 -4 0 -5 -27 -3 -60z m69
-312 c-3 -7 -5 -2 -5 12 0 14 2 19 5 13 2 -7 2 -19 0 -25z m10 -63 c1 -19 -3
-35 -8 -35 -5 0 -9 16 -9 35 0 19 4 35 8 35 4 0 8 -16 9 -35z m-98 -55 c1 -26
-2 -31 -9 -20 -5 8 -9 33 -9 55 0 31 2 36 9 20 5 -11 9 -36 9 -55z m1 -100 c0
-5 -5 -10 -11 -10 -5 0 -7 5 -4 10 3 6 8 10 11 10 2 0 4 -4 4 -10z m-3 -52
c-3 -7 -5 -2 -5 12 0 14 2 19 5 13 2 -7 2 -19 0 -25z m110 0 c-3 -7 -5 -2 -5
12 0 14 2 19 5 13 2 -7 2 -19 0 -25z m380 -90 c-2 -18 -4 -4 -4 32 0 36 2 50
4 33 2 -18 2 -48 0 -65z m-490 -75 c-2 -21 -4 -4 -4 37 0 41 2 58 4 38 2 -21
2 -55 0 -75z m120 -90 c-2 -21 -4 -4 -4 37 0 41 2 58 4 38 2 -21 2 -55 0 -75z
m290 60 c-3 -10 -5 -4 -5 12 0 17 2 24 5 18 2 -7 2 -21 0 -30z m80 5 c-3 -8
-6 -5 -6 6 -1 11 2 17 5 13 3 -3 4 -12 1 -19z m-80 -110 c-3 -8 -6 -5 -6 6 -1
11 2 17 5 13 3 -3 4 -12 1 -19z m-410 -10 c-3 -8 -6 -5 -6 6 -1 11 2 17 5 13
3 -3 4 -12 1 -19z m77 -84 c5 -14 4 -15 -9 -4 -14 11 -15 -6 -13 -168 2 -99 0
-183 -3 -186 -15 -15 -39 8 -39 36 0 17 4 27 10 23 6 -4 9 44 7 137 -2 79 -1
151 1 161 5 22 38 22 46 1z m45 -252 c1 -47 -2 -63 -11 -60 -17 6 -22 83 -12
178 l8 75 7 -65 c4 -36 7 -93 8 -128z m-42 106 c-3 -8 -6 -5 -6 6 -1 11 2 17
5 13 3 -3 4 -12 1 -19z m0 -65 c-3 -10 -5 -2 -5 17 0 19 2 27 5 18 2 -10 2
-26 0 -35z m0 -85 c-3 -7 -5 -2 -5 12 0 14 2 19 5 13 2 -7 2 -19 0 -25z m580
-50 c-3 -7 -5 -2 -5 12 0 14 2 19 5 13 2 -7 2 -19 0 -25z m-527 2 c22 -13 -2
-34 -30 -25 -17 5 -19 10 -9 21 13 16 19 17 39 4z m541 -453 c-8 -8 -11 0 -10
29 1 39 1 39 11 11 7 -21 7 -32 -1 -40z m-481 -37 c0 -5 -2 -10 -4 -10 -3 0
-8 5 -11 10 -3 6 -1 10 4 10 6 0 11 -4 11 -10z m477 -37 c-3 -10 -5 -2 -5 17
0 19 2 27 5 18 2 -10 2 -26 0 -35z m0 -195 c-2 -24 -4 -5 -4 42 0 47 2 66 4
43 2 -24 2 -62 0 -85z m-444 31 c3 -19 9 -45 14 -59 11 -26 7 -50 -7 -50 -8 0
-14 30 -25 125 -4 36 -3 45 4 34 6 -8 12 -31 14 -50z m54 -125 c-8 -50 11
-204 29 -232 21 -31 16 -40 -34 -62 l-43 -20 3 23 c2 14 11 23 27 25 22 4 23
6 16 50 -15 101 -21 237 -11 244 18 12 19 10 13 -28z m390 -66 c-2 -13 -4 -5
-4 17 -1 22 1 32 4 23 2 -10 2 -28 0 -40z m-690 -20 c-3 -7 -5 -2 -5 12 0 14
2 19 5 13 2 -7 2 -19 0 -25z m703 -49 c0 -10 -4 -19 -10 -19 -5 0 -10 12 -10
26 0 14 4 23 10 19 6 -3 10 -15 10 -26z m-350 -184 c0 -8 -82 -47 -87 -41 -3
3 14 15 38 26 49 22 49 22 49 15z"/>
<path d="M2103 4137 c2 -155 5 -191 15 -181 9 9 12 62 12 193 0 152 -2 181
-15 181 -12 0 -14 -30 -12 -193z"/>
<path d="M2403 4290 c0 -25 2 -35 4 -22 2 12 2 32 0 45 -2 12 -4 2 -4 -23z"/>
<path d="M2432 4115 c1 -118 6 -215 10 -215 4 0 8 97 8 215 0 143 -3 215 -10
215 -8 0 -10 -70 -8 -215z"/>
<path d="M2568 3908 c1 -232 4 -424 7 -426 3 -3 5 187 5 421 0 235 -3 427 -7
427 -5 0 -7 -190 -5 -422z"/>
<path d="M2818 4043 c2 -159 6 -290 8 -292 2 -2 4 127 4 287 0 161 -3 292 -8
292 -4 0 -6 -129 -4 -287z"/>
<path d="M2849 4303 c-2 -16 -1 -156 3 -313 4 -157 9 -411 12 -565 10 -476 17
-729 21 -733 2 -2 4 366 4 817 0 789 -1 821 -18 821 -13 0 -20 -9 -22 -27z"/>
<path d="M2914 3970 c4 -201 12 -421 17 -490 14 -157 15 -695 2 -712 -5 -8 -7
-114 -5 -260 3 -206 6 -246 18 -241 11 4 14 -8 14 -58 0 -35 3 -82 7 -104 3
-23 2 -37 -3 -32 -5 5 -12 43 -15 85 -3 45 -6 -7 -6 -128 0 -113 3 -180 7
-150 4 39 8 50 14 37 5 -9 6 -33 4 -52 -3 -29 -1 -35 15 -35 15 0 18 5 13 28
-10 52 -16 179 -21 482 -9 498 -25 1091 -30 1155 -3 33 -8 197 -10 365 -5 346
-10 459 -21 468 -3 4 -4 -157 0 -358z m33 -1397 c-3 -10 -5 -4 -5 12 0 17 2
24 5 18 2 -7 2 -21 0 -30z m0 -140 c-2 -21 -4 -4 -4 37 0 41 2 58 4 38 2 -21
2 -55 0 -75z m11 -109 c2 -16 -1 -23 -8 -19 -5 3 -10 18 -10 32 0 32 13 22 18
-13z m10 -344 c1 -28 -1 -31 -8 -15 -5 11 -8 38 -8 60 0 34 1 36 8 15 4 -14 8
-41 8 -60z"/>
<path d="M3095 3548 c4 -511 3 -792 -3 -808 -17 -42 -21 -9 -29 217 -8 197
-13 236 -29 220 -4 -4 -1 -192 6 -419 8 -227 14 -529 14 -670 l1 -258 41 0 41
0 -3 108 c-1 59 -6 181 -10 272 -6 156 -14 1036 -12 1405 4 683 3 715 -10 715
-12 0 -13 -130 -7 -782z m-15 -1303 c0 -19 -2 -35 -4 -35 -2 0 -6 16 -8 35 -2
19 0 35 4 35 4 0 8 -16 8 -35z"/>
<path d="M3349 3998 c0 -183 -1 -351 -2 -373 -2 -115 8 -91 15 35 14 248 18
467 12 571 -13 196 -24 93 -25 -233z"/>
<path d="M1802 4240 c0 -19 2 -27 5 -17 2 9 2 25 0 35 -3 9 -5 1 -5 -18z"/>
<path d="M1802 4175 c0 -16 2 -22 5 -12 2 9 2 23 0 30 -3 6 -5 -1 -5 -18z"/>
<path d="M2168 4115 c-4 -44 -10 -95 -14 -112 -4 -21 -2 -33 5 -33 17 0 22 37
19 135 l-3 90 -7 -80z"/>
<path d="M2726 4124 c-3 -9 -6 -171 -6 -360 0 -238 -3 -344 -11 -344 -19 0 -4
-1477 15 -1538 5 -16 12 -18 39 -13 l32 7 -3 314 c-7 739 -9 790 -45 812 -9 5
-12 150 -12 573 0 311 -1 565 -1 565 -1 0 -5 -7 -8 -16z"/>
<path d="M1742 4080 c0 -58 1 -58 17 3 5 20 6 35 1 32 -5 -3 -11 1 -13 7 -3 7
-5 -12 -5 -42z"/>
<path d="M1801 4094 c0 -11 3 -14 6 -6 3 7 2 16 -1 19 -3 4 -6 -2 -5 -13z"/>
<path d="M2600 3928 c0 -101 4 -190 10 -198 5 -8 5 -19 1 -25 -4 -5 -3 -132 2
-281 5 -149 6 -289 2 -310 -6 -27 -10 -33 -13 -19 -2 11 -9 25 -14 30 -7 7 -8
-6 -4 -41 6 -50 25 -854 26 -1085 l0 -116 24 4 25 5 1 751 c0 624 3 756 15
779 10 22 12 55 8 141 -3 61 -10 121 -16 132 -5 10 -12 103 -14 205 -2 102 -6
191 -8 198 -2 6 -14 12 -25 12 -19 0 -20 -6 -20 -182z"/>
<path d="M2773 4065 c0 -27 2 -38 4 -22 2 15 2 37 0 50 -2 12 -4 0 -4 -28z"/>
<path d="M2480 4040 c0 -5 5 -10 11 -10 5 0 7 5 4 10 -3 6 -8 10 -11 10 -2 0
-4 -4 -4 -10z"/>
<path d="M1801 4014 c0 -11 3 -14 6 -6 3 7 2 16 -1 19 -3 4 -6 -2 -5 -13z"/>
<path d="M2481 3973 c-1 -18 4 -33 9 -33 12 0 12 17 0 45 -7 17 -9 15 -9 -12z"/>
<path d="M1807 3940 c-3 -22 -1 -53 3 -68 6 -21 8 -11 9 41 1 76 -4 87 -12 27z"/>
<path d="M2522 3890 c-1 -58 2 -89 7 -80 5 8 6 51 1 95 l-7 80 -1 -95z"/>
<path d="M2134 3865 c0 -49 1 -71 3 -48 2 23 2 64 0 90 -2 26 -3 8 -3 -42z"/>
<path d="M2489 3895 c-11 -17 -11 -595 0 -595 6 0 11 78 13 193 3 211 -3 418
-13 402z"/>
<path d="M2774 3790 c0 -63 1 -89 3 -57 2 31 2 83 0 115 -2 31 -3 5 -3 -58z"/>
<path d="M3405 3455 c0 -203 1 -285 2 -182 2 104 2 270 0 370 -1 100 -2 16 -2
-188z"/>
<path d="M2132 3740 c0 -14 2 -19 5 -12 2 6 2 18 0 25 -3 6 -5 1 -5 -13z"/>
<path d="M2994 3540 c0 -124 2 -174 3 -112 2 61 2 163 0 225 -1 61 -3 11 -3
-113z"/>
<path d="M1472 3733 c12 -14 18 -53 23 -163 9 -204 10 -557 2 -670 -4 -55 -1
-191 7 -325 l14 -230 -2 281 -1 282 29 28 28 29 -6 129 c-4 71 -12 140 -17
154 -6 15 -6 29 -1 34 12 12 2 141 -11 150 -13 8 -17 48 -5 48 4 0 8 38 8 85
0 72 -3 88 -20 105 -11 11 -20 26 -20 33 -1 15 -24 47 -35 47 -5 0 -1 -8 7
-17z m45 -335 c-3 -7 -5 -2 -5 12 0 14 2 19 5 13 2 -7 2 -19 0 -25z m20 -10
c-3 -8 -6 -5 -6 6 -1 11 2 17 5 13 3 -3 4 -12 1 -19z"/>
<path d="M3136 3742 c-3 -5 -8 -39 -12 -77 -6 -62 -6 -68 10 -62 10 4 20 7 22
7 2 0 5 21 6 48 2 80 16 -341 27 -823 11 -494 29 -1007 36 -1013 2 -3 20 -1
40 2 34 7 35 8 37 54 l1 47 6 -45 c5 -40 9 -45 31 -45 l25 0 -3 110 c-2 105
-20 336 -28 363 -2 6 -16 12 -31 13 l-28 1 25 7 c22 6 25 13 28 56 3 45 2 48
-14 34 -17 -13 -17 -13 -1 11 23 33 21 58 -5 80 -21 17 -24 17 -30 2 -4 -11
-7 -1 -7 23 -1 22 -4 51 -8 64 -4 16 -2 22 4 18 12 -8 26 20 17 34 -3 5 -1 9
5 9 18 0 22 -20 7 -35 -19 -19 -10 -45 15 -45 18 0 19 6 14 93 -2 50 -7 209
-11 352 -7 317 -9 354 -17 362 -4 3 -7 1 -7 -6 0 -8 -7 -7 -23 4 -13 8 -27 12
-30 8 -4 -3 -7 -1 -7 6 0 7 6 18 13 26 8 8 12 26 9 45 -2 18 -8 27 -12 21 -3
-7 -14 -9 -23 -5 -16 6 -25 28 -26 64 -1 14 -19 192 -20 198 -2 6 -30 1 -35
-6z m74 -272 c0 -5 -4 -10 -10 -10 -5 0 -10 5 -10 10 0 6 5 10 10 10 6 0 10
-4 10 -10z m62 -107 c19 -22 31 -80 18 -88 -10 -6 -11 -2 -14 47 -2 32 -10 43
-26 33 -8 -5 -5 -11 7 -21 17 -13 17 -13 -3 -14 -24 0 -33 -22 -35 -85 -1 -39
-1 -39 -10 -10 -9 33 -5 62 20 117 18 43 22 45 43 21z m2 -172 c-3 -58 -4 -63
-16 -59 -12 4 -13 72 -1 91 9 15 18 -2 17 -32z m36 -361 c0 -5 -6 -11 -12 -14
-10 -5 -10 -7 0 -12 6 -3 12 -20 12 -37 l-1 -32 -15 28 c-8 15 -23 27 -34 27
-15 0 -20 6 -19 28 1 16 3 20 6 10 6 -24 23 -23 23 1 0 14 5 18 20 14 11 -3
20 -9 20 -13z m-32 -141 c-22 -14 -31 8 -11 28 18 18 18 18 21 -1 2 -10 -2
-22 -10 -27z m-45 -81 c-3 -51 -7 -95 -9 -97 -2 -2 -4 39 -4 92 0 54 4 97 9
97 5 0 7 -41 4 -92z m54 -200 c-3 -8 -6 -5 -6 6 -1 11 2 17 5 13 3 -3 4 -12 1
-19z"/>
<path d="M2827 3708 c-3 -18 -2 -60 2 -93 8 -60 8 -60 10 33 1 96 -3 115 -12
60z"/>
<path d="M1464 3585 c3 -77 6 -261 7 -410 2 -262 2 -266 11 -135 11 167 2 645
-13 668 -7 12 -9 -22 -5 -123z"/>
<path d="M2434 3395 c-1 -170 1 -290 5 -265 3 25 4 164 1 310 l-6 265 0 -310z"/>
<path d="M2121 3678 c1 -7 5 -24 9 -38 7 -22 8 -21 9 13 1 20 -3 37 -9 37 -5
0 -10 -6 -9 -12z"/>
<path d="M1678 3548 c-2 -57 -1 -150 3 -208 4 -83 5 -62 7 103 2 215 -4 283
-10 105z"/>
<path d="M2783 3565 c0 -44 2 -61 4 -37 2 23 2 59 0 80 -2 20 -4 1 -4 -43z"/>
<path d="M3018 3587 c-3 -19 -2 -25 4 -19 6 6 8 18 6 28 -3 14 -5 12 -10 -9z"/>
<path d="M3281 3594 c0 -11 3 -14 6 -6 3 7 2 16 -1 19 -3 4 -6 -2 -5 -13z"/>
<path d="M2133 3550 c0 -25 2 -35 4 -22 2 12 2 32 0 45 -2 12 -4 2 -4 -23z"/>
<path d="M3022 3433 c-1 -85 1 -123 9 -123 6 0 9 9 6 20 -3 11 -1 20 5 20 5 0
6 6 1 13 -4 6 -10 53 -14 102 l-6 90 -1 -122z"/>
<path d="M2516 3505 c4 -8 10 -12 15 -9 11 6 2 24 -11 24 -5 0 -7 -7 -4 -15z"/>
<path d="M2834 3415 c0 -55 1 -76 3 -47 2 29 2 74 0 100 -2 26 -3 2 -3 -53z"/>
<path d="M3351 3484 c0 -11 3 -14 6 -6 3 7 2 16 -1 19 -3 4 -6 -2 -5 -13z"/>
<path d="M2133 3425 c0 -22 2 -30 4 -17 2 12 2 30 0 40 -3 9 -5 -1 -4 -23z"/>
<path d="M3041 3434 c0 -11 3 -14 6 -6 3 7 2 16 -1 19 -3 4 -6 -2 -5 -13z"/>
<path d="M2516 3425 c4 -8 10 -15 15 -15 5 0 9 7 9 15 0 8 -7 15 -15 15 -9 0
-12 -6 -9 -15z"/>
<path d="M2783 3360 c0 -25 2 -35 4 -22 2 12 2 32 0 45 -2 12 -4 2 -4 -23z"/>
<path d="M2132 3310 c0 -14 2 -19 5 -12 2 6 2 18 0 25 -3 6 -5 1 -5 -13z"/>
<path d="M2363 3290 c0 -25 2 -35 4 -22 2 12 2 32 0 45 -2 12 -4 2 -4 -23z"/>
<path d="M2814 3280 c-24 -10 -35 -48 -33 -124 2 -51 2 -51 8 -11 5 34 10 40
32 43 25 3 26 5 21 50 -2 26 -5 48 -6 48 0 1 -10 -2 -22 -6z"/>
<path d="M2992 3255 c0 -16 2 -22 5 -12 2 9 2 23 0 30 -3 6 -5 -1 -5 -18z"/>
<path d="M2362 3210 c0 -14 2 -19 5 -12 2 6 2 18 0 25 -3 6 -5 1 -5 -13z"/>
<path d="M1693 3105 c0 -38 2 -53 4 -32 2 20 2 52 0 70 -2 17 -4 1 -4 -38z"/>
<path d="M2823 3090 c0 -47 2 -66 4 -42 2 23 2 61 0 85 -2 23 -4 4 -4 -43z"/>
<path d="M2844 3060 c0 -63 1 -89 3 -57 2 31 2 83 0 115 -2 31 -3 5 -3 -58z"/>
<path d="M3002 3095 c0 -16 2 -22 5 -12 2 9 2 23 0 30 -3 6 -5 -1 -5 -18z"/>
<path d="M2362 3085 c0 -16 2 -22 5 -12 2 9 2 23 0 30 -3 6 -5 -1 -5 -18z"/>
<path d="M3403 3015 c0 -33 2 -45 4 -27 2 18 2 45 0 60 -2 15 -4 0 -4 -33z"/>
<path d="M2431 2941 c-1 -72 2 -102 9 -95 7 7 8 42 2 105 l-9 94 -2 -104z"/>
<path d="M2363 2995 c0 -22 2 -30 4 -17 2 12 2 30 0 40 -3 9 -5 -1 -4 -23z"/>
<path d="M3002 2980 c0 -14 2 -19 5 -12 2 6 2 18 0 25 -3 6 -5 1 -5 -13z"/>
<path d="M2821 2974 c0 -11 3 -14 6 -6 3 7 2 16 -1 19 -3 4 -6 -2 -5 -13z"/>
<path d="M2823 2865 c0 -44 2 -61 4 -37 2 23 2 59 0 80 -2 20 -4 1 -4 -43z"/>
<path d="M2849 2928 c-5 -113 16 -926 27 -1030 3 -35 10 -55 16 -52 6 4 8 59
4 148 -3 77 -5 166 -6 196 0 35 -3 50 -9 41 -8 -12 -30 641 -23 692 1 9 0 17
-3 17 -3 0 -5 -6 -6 -12z"/>
<path d="M3412 2905 c0 -16 2 -22 5 -12 2 9 2 23 0 30 -3 6 -5 -1 -5 -18z"/>
<path d="M2923 2835 c0 -38 2 -53 4 -32 2 20 2 52 0 70 -2 17 -4 1 -4 -38z"/>
<path d="M3408 2840 c-3 -16 -1 -35 4 -42 4 -8 8 4 8 30 0 49 -6 55 -12 12z"/>
<path d="M1702 2790 c0 -14 2 -19 5 -12 2 6 2 18 0 25 -3 6 -5 1 -5 -13z"/>
<path d="M1403 2774 c-7 -18 4 -554 12 -562 2 -3 4 126 4 286 0 161 -2 292 -5
292 -3 0 -7 -7 -11 -16z"/>
<path d="M2442 2760 c0 -19 2 -27 5 -17 2 9 2 25 0 35 -3 9 -5 1 -5 -18z"/>
<path d="M2822 2735 c0 -16 2 -22 5 -12 2 9 2 23 0 30 -3 6 -5 -1 -5 -18z"/>
<path d="M3441 2734 c0 -11 3 -14 6 -6 3 7 2 16 -1 19 -3 4 -6 -2 -5 -13z"/>
<path d="M2442 2700 c0 -14 2 -19 5 -12 2 6 2 18 0 25 -3 6 -5 1 -5 -13z"/>
<path d="M3414 2600 c0 -63 1 -89 3 -57 2 31 2 83 0 115 -2 31 -3 5 -3 -58z"/>
<path d="M1870 2659 c0 -5 -4 -8 -8 -5 -4 2 -14 1 -22 -5 -10 -6 -11 -9 -2 -9
6 0 12 -12 12 -26 0 -16 -5 -24 -12 -21 -7 2 -12 11 -12 20 1 13 -2 14 -17 6
-19 -10 -26 -29 -11 -29 4 0 8 -8 9 -17 0 -10 4 -96 8 -191 5 -95 9 -171 11
-170 1 2 5 44 9 93 4 50 11 98 16 107 8 15 13 47 21 133 1 11 7 23 12 27 7 5
7 8 1 8 -6 0 -10 20 -9 45 1 25 0 45 -2 45 -2 0 -4 -5 -4 -11z"/>
<path d="M2821 2644 c0 -11 3 -14 6 -6 3 7 2 16 -1 19 -3 4 -6 -2 -5 -13z"/>
<path d="M1875 2509 c-4 -6 -5 -12 -2 -15 2 -3 7 2 10 11 7 17 1 20 -8 4z"/>
<path d="M1948 2386 c-3 -14 -1 -31 3 -38 6 -8 9 1 9 25 0 42 -6 48 -12 13z"/>
<path d="M3411 2394 c0 -11 3 -14 6 -6 3 7 2 16 -1 19 -3 4 -6 -2 -5 -13z"/>
<path d="M1876 2339 c-8 -42 -8 -59 2 -59 4 0 8 20 10 45 3 52 -3 59 -12 14z"/>
<path d="M3412 2330 c0 -19 2 -27 5 -17 2 9 2 25 0 35 -3 9 -5 1 -5 -18z"/>
<path d="M1527 2115 c3 -121 6 -222 8 -224 2 -1 8 0 13 3 5 3 5 30 0 63 -4 32
-12 130 -17 218 -9 157 -9 156 -4 -60z"/>
<path d="M1410 2176 c0 -9 5 -16 10 -16 6 0 10 4 10 9 0 6 -4 13 -10 16 -5 3
-10 -1 -10 -9z"/>
<path d="M1421 2034 c0 -11 3 -14 6 -6 3 7 2 16 -1 19 -3 4 -6 -2 -5 -13z"/>
<path d="M1602 1950 c0 -14 2 -19 5 -12 2 6 2 18 0 25 -3 6 -5 1 -5 -13z"/>
<path d="M1425 1941 c-3 -5 -1 -12 5 -16 5 -3 10 1 10 9 0 18 -6 21 -15 7z"/>
<path d="M1601 1894 c0 -11 3 -14 6 -6 3 7 2 16 -1 19 -3 4 -6 -2 -5 -13z"/>
<path d="M1961 1794 c0 -11 3 -14 6 -6 3 7 2 16 -1 19 -3 4 -6 -2 -5 -13z"/>
<path d="M2015 1771 c-16 -9 -31 -17 -33 -17 -1 -1 2 -13 7 -27 8 -19 6 -28
-5 -38 -20 -17 -10 -23 15 -9 13 6 21 21 21 35 0 14 4 25 10 25 12 0 32 38 23
43 -5 2 -21 -3 -38 -12z"/>
<path d="M2080 1740 c-8 -5 -10 -10 -5 -10 6 0 17 5 25 10 8 5 11 10 5 10 -5
0 -17 -5 -25 -10z"/>
<path d="M1324 1528 c10 -6 22 -6 26 -2 5 5 -3 10 -18 11 -22 1 -24 0 -8 -9z"/>
<path d="M1261 1494 c0 -11 3 -14 6 -6 3 7 2 16 -1 19 -3 4 -6 -2 -5 -13z"/>
<path d="M1890 1499 c0 -5 5 -7 10 -4 6 3 10 8 10 11 0 2 -4 4 -10 4 -5 0 -10
-5 -10 -11z"/>
<path d="M1270 1466 c0 -2 8 -10 18 -17 15 -13 16 -12 3 4 -13 16 -21 21 -21
13z"/>
<path d="M1360 1435 c-7 -9 -20 -13 -29 -10 -13 5 -14 4 -3 -7 10 -10 16 -8
34 10 12 12 20 22 16 22 -3 0 -11 -7 -18 -15z"/>
<path d="M1792 1430 c0 -14 2 -19 5 -12 2 6 2 18 0 25 -3 6 -5 1 -5 -13z"/>
<path d="M1645 1420 c-3 -5 -1 -10 4 -10 6 0 11 5 11 10 0 6 -2 10 -4 10 -3 0
-8 -4 -11 -10z"/>
<path d="M2697 1382 c-13 -14 -17 -38 -17 -91 0 -90 10 -109 60 -117 25 -4 48
-17 66 -36 l26 -31 24 30 c16 21 35 32 63 37 52 8 61 26 61 119 0 103 -5 107
-152 107 -99 0 -117 -3 -131 -18z m111 -75 c4 -21 -27 -35 -38 -17 -12 19 0
42 19 38 9 -2 17 -11 19 -21z m91 -24 c-1 -22 -3 -30 -6 -18 -3 11 -10 23 -15
26 -12 8 -2 29 13 29 5 0 8 -17 8 -37z m-69 -28 c0 -11 -12 -15 -45 -15 -42 0
-54 7 -38 23 3 4 24 7 45 7 27 0 38 -4 38 -15z"/>
<path d="M1253 1224 c-3 -9 2 -23 11 -32 20 -20 51 -6 51 24 0 24 -53 31 -62
8z"/>
<path d="M1395 1230 c-3 -6 1 -7 9 -4 21 8 20 -5 -1 -28 -9 -10 -12 -18 -7
-18 13 0 36 39 29 50 -8 13 -22 13 -30 0z"/>
<path d="M1447 1233 c-11 -10 -8 -51 4 -59 6 -3 16 -1 22 6 9 9 8 14 -5 24
-22 16 -23 30 -2 22 8 -3 12 -2 9 4 -7 12 -19 13 -28 3z m23 -43 c0 -5 -4 -10
-10 -10 -5 0 -10 5 -10 10 0 6 5 10 10 10 6 0 10 -4 10 -10z"/>
<path d="M1358 1205 c2 -14 6 -25 8 -25 2 0 4 11 4 25 0 14 -4 25 -9 25 -4 0
-6 -11 -3 -25z"/>
<path d="M1512 1205 c0 -16 2 -22 5 -12 2 9 2 23 0 30 -3 6 -5 -1 -5 -18z"/>
<path d="M1561 1209 c-1 -15 4 -26 12 -26 7 0 13 8 13 18 0 10 -3 16 -7 13 -4
-2 -10 2 -12 8 -3 7 -6 1 -6 -13z"/>
<path d="M1604 1209 c-3 -6 1 -17 10 -25 9 -8 11 -9 6 -2 -15 18 -12 31 5 24
8 -3 15 -1 15 4 0 14 -27 13 -36 -1z"/>
<path d="M1660 1211 c0 -6 5 -13 11 -17 8 -4 7 -9 -2 -15 -10 -6 -10 -9 -2 -9
18 0 27 21 13 30 -10 6 -9 9 1 13 10 4 9 6 -3 6 -10 1 -18 -3 -18 -8z"/>
<path d="M1351 984 c-24 -19 -31 -34 -31 -60 0 -29 3 -34 24 -34 18 0 25 6 28
23 4 27 22 26 26 -3 3 -15 11 -20 33 -20 25 0 29 4 29 28 0 19 -11 39 -33 60
-18 18 -36 32 -39 32 -4 0 -20 -12 -37 -26z"/>
<path d="M2825 850 c3 -5 8 -10 11 -10 2 0 4 5 4 10 0 6 -5 10 -11 10 -5 0 -7
-4 -4 -10z"/>
<path d="M1311 3928 c-1 -53 14 -66 21 -18 3 17 1 30 -3 30 -4 0 -10 8 -12 18
-3 9 -5 -4 -6 -30z"/>
<path d="M1341 3884 c0 -11 3 -14 6 -6 3 7 2 16 -1 19 -3 4 -6 -2 -5 -13z"/>
<path d="M1312 2960 c0 -19 2 -27 5 -17 2 9 2 25 0 35 -3 9 -5 1 -5 -18z"/>
<path d="M318 5059 c-57 -33 -36 -99 30 -99 21 0 43 -5 50 -12 9 -9 12 -9 12
-1 0 7 -5 15 -11 19 -6 3 -8 16 -5 29 4 15 -2 32 -15 49 -22 28 -34 31 -61 15z
m52 -24 c26 -32 -13 -81 -47 -59 -35 22 -23 74 17 74 10 0 23 -7 30 -15z"/>
<path d="M908 4693 c7 -3 16 -2 19 1 4 3 -2 6 -13 5 -11 0 -14 -3 -6 -6z"/>
<path d="M930 4666 c0 -2 7 -6 15 -10 8 -3 15 -1 15 4 0 6 -7 10 -15 10 -8 0
-15 -2 -15 -4z"/>
<path d="M615 4281 c-15 -6 -12 -9 20 -14 21 -4 44 -2 51 3 6 6 20 7 29 3 13
-4 16 -3 11 5 -8 13 -80 15 -111 3z"/>
<path d="M788 4273 c12 -2 32 -2 45 0 12 2 2 4 -23 4 -25 0 -35 -2 -22 -4z"/>
<path d="M558 4263 c6 -2 18 -2 25 0 6 3 1 5 -13 5 -14 0 -19 -2 -12 -5z"/>
<path d="M714 4245 c-18 -14 -18 -14 7 -15 15 0 32 7 39 15 10 12 9 15 -7 15
-10 0 -28 -7 -39 -15z"/>
<path d="M875 4250 c-3 -5 -16 -10 -28 -10 -13 0 -17 -4 -11 -9 10 -10 116 -2
109 9 -2 3 -18 5 -36 2 -22 -3 -30 -1 -25 7 4 6 5 11 2 11 -3 0 -8 -4 -11 -10z"/>
<path d="M914 3686 c-4 -10 -2 -22 4 -28 8 -8 13 -7 18 6 4 10 2 22 -4 28 -8
8 -13 7 -18 -6z"/>
<path d="M312 3477 c-6 -7 -7 -19 -3 -26 6 -9 10 -6 14 10 8 28 3 34 -11 16z"/>
<path d="M350 3481 c0 -6 5 -13 12 -17 6 -4 8 -3 4 4 -3 6 2 13 11 15 14 4 13
5 -4 6 -13 0 -23 -3 -23 -8z"/>
<path d="M531 3473 c28 -36 39 -44 50 -38 13 9 -28 55 -49 55 -12 0 -12 -3 -1
-17z"/>
<path d="M273 3415 c0 -12 5 -22 13 -22 7 0 11 5 7 10 -3 5 4 4 16 -2 11 -7
21 -8 21 -4 0 15 -15 30 -36 35 -17 4 -21 1 -21 -17z"/>
<path d="M205 3420 c-3 -5 1 -10 9 -10 9 0 16 5 16 10 0 6 -4 10 -9 10 -6 0
-13 -4 -16 -10z"/>
<path d="M344 3421 c-2 -2 -4 -12 -4 -22 0 -10 -8 -20 -17 -22 -11 -3 -6 -5
12 -7 26 -1 27 -3 10 -10 l-20 -9 20 -1 c11 -1 28 -3 37 -5 10 -2 21 2 25 7 3
7 1 8 -5 4 -7 -4 -12 -2 -12 4 0 6 -6 8 -12 4 -10 -6 -10 -4 0 7 18 19 15 28
-8 22 -12 -3 -20 0 -20 6 0 7 6 11 13 10 22 -3 37 1 37 9 0 7 -48 10 -56 3z"/>
<path d="M800 3268 c0 -10 30 -78 35 -78 6 0 -16 63 -26 75 -5 5 -9 6 -9 3z"/>
<path d="M910 3248 c-23 -19 -23 -20 -4 -14 15 4 24 2 28 -9 8 -22 25 -18 23
5 -1 12 -7 18 -14 16 -7 -3 -13 -1 -13 3 0 5 6 12 13 14 6 3 8 6 2 6 -5 0 -21
-9 -35 -21z"/>
<path d="M409 3184 c-22 -28 -24 -82 -3 -105 15 -16 16 -22 5 -28 -11 -7 -9
-11 5 -20 11 -6 13 -11 6 -11 -7 0 -22 -9 -34 -20 l-21 -19 23 -9 c21 -8 21
-9 5 -15 -14 -6 -15 -10 -4 -23 11 -13 10 -18 -5 -26 -16 -9 -17 -11 0 -29 14
-15 14 -21 4 -34 -13 -16 -32 -11 -28 8 4 17 -23 77 -34 77 -5 0 -6 -9 -3 -20
4 -13 1 -22 -8 -26 -11 -4 -14 -17 -13 -44 2 -31 0 -37 -13 -33 -9 3 -1 -4 17
-16 18 -12 39 -21 46 -21 8 0 16 -7 20 -15 3 -8 2 -15 -3 -15 -9 0 -8 -31 3
-48 5 -8 -2 -12 -26 -13 -31 -2 -32 -2 -5 -6 18 -3 36 2 48 13 17 16 19 16 19
1 0 -14 11 -17 64 -17 36 0 68 5 71 10 3 6 12 10 18 10 7 0 6 -4 -3 -10 -10
-7 55 -10 199 -9 l213 0 -7 27 c-8 31 -8 55 -1 136 3 32 2 64 -2 70 -10 15
-15 104 -9 171 3 34 -10 58 -26 48 -6 -4 -3 -9 9 -14 16 -6 15 -8 -8 -8 -16
-1 -28 -6 -28 -12 0 -5 3 -8 8 -6 4 3 13 -1 20 -9 7 -8 8 -14 3 -14 -5 0 -16
-3 -25 -6 -12 -5 -16 0 -17 17 l0 24 -12 -23 c-8 -17 -8 -31 0 -53 10 -26 9
-33 -12 -55 -30 -33 -44 -25 -41 25 2 25 -2 37 -9 35 -6 -3 -18 9 -28 26 -18
30 -18 30 4 30 15 0 19 4 15 16 -3 9 -6 22 -6 30 0 9 -5 12 -11 8 -6 -3 -21
-1 -32 5 -38 19 -169 42 -182 31 -7 -6 -19 -4 -33 6 -12 8 -43 17 -69 21 -39
4 -51 2 -64 -13z m170 -56 c12 -16 11 -18 -13 -18 -23 0 -25 2 -14 20 7 10 13
18 13 17 0 -1 7 -10 14 -19z m-67 -86 c-38 -32 -41 -47 -8 -38 20 5 23 3 19
-14 -8 -28 -21 -34 -48 -20 -17 9 -22 21 -22 49 0 33 4 39 36 52 51 22 65 5
23 -29z m68 8 c0 -5 -2 -10 -4 -10 -3 0 -8 5 -11 10 -3 6 -1 10 4 10 6 0 11
-4 11 -10z m312 -129 c18 10 24 8 39 -12 23 -29 20 -43 -11 -47 -18 -3 -22 0
-18 15 4 16 1 19 -18 15 -20 -4 -24 0 -23 19 0 13 3 18 6 12 3 -10 10 -10 25
-2z m-77 -31 c-4 -6 -1 -18 7 -27 11 -15 10 -16 -9 -11 -13 4 -23 2 -23 -3 0
-5 -5 -9 -10 -9 -6 0 -1 14 12 30 21 28 37 42 23 20z m54 -48 c-5 -9 -18 -39
-29 -67 -10 -27 -19 -43 -20 -35 0 13 -2 13 -9 1 -7 -11 -24 -12 -89 -5 l-79
9 56 33 c31 18 51 28 44 21 -6 -6 -9 -19 -6 -28 4 -13 3 -14 -5 -2 -9 13 -13
13 -27 1 -16 -13 -16 -15 2 -21 10 -4 31 -8 46 -8 24 -1 26 2 18 17 -8 15 -4
22 20 36 28 16 29 16 29 0 0 -26 15 -6 30 39 6 20 16 35 21 32 5 -4 4 -13 -2
-23z m-523 -44 c-18 -26 -22 -17 -5 14 6 11 13 17 16 15 3 -3 -2 -16 -11 -29z
m339 3 c-24 -23 -95 -54 -95 -41 0 5 12 13 28 16 15 4 38 15 51 26 31 24 41
23 16 -1z m-107 -78 c-16 -2 -40 -2 -55 0 -16 2 -3 4 27 4 30 0 43 -2 28 -4z"/>
<path d="M235 3160 c3 -5 8 -10 11 -10 2 0 4 5 4 10 0 6 -5 10 -11 10 -5 0 -7
-4 -4 -10z"/>
<path d="M945 3160 c-3 -5 -1 -10 4 -10 6 0 11 5 11 10 0 6 -2 10 -4 10 -3 0
-8 -4 -11 -10z"/>
<path d="M851 3054 c0 -11 3 -14 6 -6 3 7 2 16 -1 19 -3 4 -6 -2 -5 -13z"/>
<path d="M309 3048 c-6 -13 -6 -58 -1 -58 4 0 9 14 10 30 2 24 -3 40 -9 28z"/>
<path d="M840 3000 c0 -5 5 -10 11 -10 5 0 7 5 4 10 -3 6 -8 10 -11 10 -2 0
-4 -4 -4 -10z"/>
<path d="M610 2499 c9 -29 8 -31 -14 -25 -20 5 -24 2 -28 -22 -6 -47 1 -61 33
-60 16 1 29 5 29 10 0 13 18 0 30 -22 8 -15 7 -17 -12 -12 -12 3 -26 -1 -32
-9 -6 -8 -23 -15 -38 -17 -41 -4 -168 -66 -168 -82 0 -5 -12 -21 -27 -35 -27
-24 -27 -26 -13 -53 11 -18 24 -27 43 -27 14 -1 29 -4 33 -8 13 -12 34 -8 34
8 0 8 15 31 33 52 17 20 26 34 20 29 -7 -4 -13 -2 -13 3 0 6 11 11 24 11 14 0
27 4 30 9 8 13 56 0 65 -18 6 -10 4 -25 -4 -40 -8 -17 -10 -34 -4 -55 10 -36
5 -44 -17 -25 -10 8 -14 22 -10 40 5 26 4 26 -31 19 -19 -5 -39 -12 -44 -17
-4 -4 -9 -64 -12 -133 -2 -93 -8 -133 -20 -157 -17 -32 -17 -33 2 -33 16 0 20
10 26 73 3 39 9 80 12 90 4 17 6 17 22 3 25 -23 37 -20 16 4 -18 20 -18 21 6
47 l24 26 -30 -19 -30 -19 16 25 c11 16 29 27 53 31 33 5 36 4 36 -18 0 -31
16 -30 22 2 3 14 1 25 -3 25 -11 0 -27 61 -21 78 8 23 17 12 41 -53 27 -71 39
-80 21 -16 -6 22 -11 56 -12 76 -1 37 -7 42 -26 23 -8 -8 -8 -2 0 25 6 20 14
35 17 34 3 -1 7 1 9 6 5 17 1 27 -13 27 -16 0 -55 30 -55 42 0 5 14 8 31 8 39
0 109 40 109 63 0 9 -6 17 -14 17 -11 0 -13 9 -9 35 3 19 3 41 0 49 -6 14 -10
14 -35 -1 -28 -16 -31 -16 -55 0 -42 27 -57 23 -47 -14z m113 -100 c7 0 3 -4
-8 -8 -22 -9 -35 -5 -35 11 0 5 7 7 16 4 9 -3 21 -6 27 -7z m-143 -283 c0 -3
-4 -8 -10 -11 -5 -3 -10 -1 -10 4 0 6 5 11 10 11 6 0 10 -2 10 -4z m-20 -30
c0 -3 -4 -8 -10 -11 -5 -3 -10 -1 -10 4 0 6 5 11 10 11 6 0 10 -2 10 -4z"/>
<path d="M580 2216 c0 -8 5 -18 10 -21 6 -3 10 3 10 14 0 12 -4 21 -10 21 -5
0 -10 -6 -10 -14z"/>
<path d="M376 1878 c-23 -22 -51 -39 -70 -41 -23 -3 -20 -4 15 -5 46 -2 55 4
97 60 25 32 -3 23 -42 -14z"/>
<path d="M430 1439 c-14 -17 -34 -34 -46 -39 -13 -5 -24 -21 -27 -42 -4 -18
-11 -52 -16 -75 l-8 -43 74 0 c41 0 83 5 93 10 13 7 21 7 25 0 4 -6 57 -10
127 -10 106 0 119 2 108 15 -7 8 -19 15 -26 15 -8 0 -14 5 -14 10 0 6 13 10
29 10 27 0 29 3 33 45 3 39 -1 50 -24 75 -15 17 -36 30 -47 30 -10 0 -27 3
-35 6 -11 4 -15 2 -11 -8 4 -11 -2 -13 -30 -10 -31 4 -34 6 -23 20 11 13 10
14 -10 8 -12 -3 -32 -9 -44 -12 -13 -3 -31 -16 -40 -28 -10 -11 -18 -15 -18
-8 0 6 -7 12 -15 12 -20 0 -19 19 1 27 13 5 13 7 2 14 -22 14 -32 10 -58 -22z
m78 -106 c-11 -10 -23 -13 -35 -8 -17 8 -17 8 2 13 11 2 24 8 29 13 17 16 20
-1 4 -18z"/>
<path d="M225 1260 l-30 -20 40 0 c38 0 65 13 65 32 0 15 -45 8 -75 -12z"/>
<path d="M390 1094 c-40 -46 -39 -87 3 -92 23 -3 27 0 27 23 0 32 23 29 28 -3
2 -16 10 -22 28 -22 21 0 24 4 24 38 0 29 -7 45 -28 65 -15 15 -33 27 -39 27
-6 0 -25 -16 -43 -36z"/>
<path d="M2295 669 c-79 -19 -156 -99 -154 -164 0 -29 1 -28 24 19 31 62 50
83 97 107 41 21 127 25 159 8 11 -6 25 -8 32 -6 17 5 -41 33 -83 40 -19 3 -53
1 -75 -4z"/>
<path d="M2432 285 c-18 -8 -56 -17 -83 -21 -54 -7 -49 -24 6 -24 33 0 108 31
119 49 9 14 -2 13 -42 -4z"/>
<path d="M2252 103 c48 -2 129 -2 180 0 51 1 12 3 -87 3 -99 0 -141 -2 -93 -3z"/>
</g>
</svg>
