<?xml version="1.0" encoding="iso-8859-1"?>
<!-- Generator: Adobe Illustrator 19.0.0, SVG Export Plug-In . SVG Version: 6.00 Build 0)  -->
<svg version="1.1" id="Capa_1" xmlns="http://www.w3.org/2000/svg" xmlns:xlink="http://www.w3.org/1999/xlink" x="0px" y="0px"
	 viewBox="0 0 512 512" style="enable-background:new 0 0 512 512;" xml:space="preserve">
<path style="fill:#549CFF;" d="M415.996,50.048v411.903c0,27.596-22.453,50.048-50.058,50.048H146.063
	c-27.606,0-50.058-22.453-50.058-50.048V50.048C96.004,22.453,118.457,0,146.063,0h219.875C393.543,0,415.996,22.453,415.996,50.048
	z"/>
<path style="fill:#4A7AFF;" d="M415.996,50.048v411.903c0,27.596-22.453,50.048-50.058,50.048H255.995V0h109.942
	C393.543,0,415.996,22.453,415.996,50.048z"/>
<path style="fill:#D2EB5A;" d="M415.996,329.667v132.285c0,27.596-22.453,50.048-50.058,50.048H146.063
	c-27.606,0-50.058-22.453-50.058-50.048V329.667h58.403l51.379-84.518c0-0.01,0-0.01,0-0.01l0.15-0.25c0.07-0.1,0.14-0.2,0.21-0.3
	c0.18-0.29,0.37-0.57,0.57-0.85c0.12-0.15,0.24-0.3,0.36-0.45c0.19-0.23,0.37-0.46,0.57-0.68c0.16-0.18,0.34-0.35,0.51-0.52
	c0.17-0.17,0.33-0.34,0.51-0.5c0.22-0.2,0.46-0.39,0.69-0.58c0.14-0.11,0.29-0.23,0.44-0.35c0.28-0.2,0.56-0.39,0.85-0.58
	c0.11-0.07,0.2-0.14,0.3-0.2c0.03-0.02,0.06-0.03,0.09-0.05c0.29-0.18,0.59-0.33,0.901-0.49c0.15-0.07,0.29-0.16,0.45-0.23
	c0.24-0.11,0.49-0.21,0.74-0.31c0.22-0.09,0.43-0.19,0.65-0.26c0.16-0.06,0.32-0.1,0.48-0.15c0.31-0.1,0.62-0.2,0.941-0.28
	c0.05-0.01,0.1-0.01,0.15-0.03c0.42-0.09,0.84-0.18,1.271-0.24c0.01,0,0.03,0,0.05-0.01c0.45-0.06,0.911-0.11,1.371-0.13
	c0.31-0.01,0.62,0,0.931,0c0.16,0,0.32-0.01,0.49,0c0.941,0.04,1.881,0.18,2.812,0.4c0.01,0,0.02,0.01,0.03,0.01
	c0.33,0.08,0.67,0.19,1.001,0.29c0.14,0.05,0.28,0.08,0.41,0.13c0.24,0.08,0.46,0.18,0.69,0.27c0.24,0.1,0.48,0.19,0.71,0.3
	c0.16,0.07,0.31,0.16,0.47,0.24c0.3,0.15,0.59,0.31,0.881,0.48c0.03,0.02,0.06,0.03,0.09,0.05c0.11,0.06,0.2,0.14,0.31,0.21
	c0.28,0.18,0.57,0.37,0.84,0.57c0.16,0.11,0.3,0.24,0.45,0.36c0.23,0.18,0.46,0.37,0.68,0.57c0.18,0.16,0.35,0.33,0.52,0.5
	c0.17,0.17,0.34,0.34,0.51,0.52c0.19,0.22,0.38,0.45,0.56,0.68c0.12,0.15,0.25,0.29,0.36,0.45c0.21,0.27,0.39,0.55,0.57,0.83
	c0.07,0.11,0.15,0.21,0.22,0.32l24.414,40.053l6.334,10.386l28.816-22.163c0.17-0.13,0.34-0.24,0.51-0.36
	c0.22-0.15,0.43-0.31,0.66-0.45c0.2-0.12,0.4-0.23,0.6-0.35c0.24-0.13,0.47-0.27,0.71-0.39c0.21-0.1,0.42-0.19,0.62-0.28
	c0.25-0.11,0.49-0.22,0.74-0.31c0.21-0.08,0.43-0.15,0.65-0.22c0.25-0.08,0.49-0.17,0.74-0.23c0.23-0.06,0.45-0.11,0.67-0.15
	c0.25-0.06,0.5-0.12,0.75-0.16c0.23-0.04,0.46-0.06,0.69-0.09c0.25-0.03,0.5-0.07,0.75-0.08c0.23-0.02,0.46-0.02,0.69-0.02
	c0.25-0.01,0.5-0.02,0.75-0.01c0.23,0,0.46,0.02,0.68,0.04c0.25,0.02,0.51,0.03,0.76,0.06c0.22,0.03,0.45,0.07,0.67,0.11
	c0.25,0.04,0.5,0.08,0.74,0.13c0.23,0.05,0.45,0.12,0.67,0.18c0.24,0.06,0.48,0.12,0.72,0.2c0.22,0.07,0.44,0.16,0.66,0.24
	c0.23,0.09,0.47,0.17,0.7,0.27c0.21,0.1,0.42,0.21,0.64,0.31c0.22,0.11,0.44,0.21,0.66,0.33c0.21,0.12,0.42,0.26,0.62,0.39
	c0.21,0.12,0.42,0.25,0.62,0.39c0.21,0.14,0.41,0.3,0.61,0.45c0.19,0.15,0.38,0.29,0.57,0.45c0.19,0.17,0.38,0.35,0.57,0.53
	c0.18,0.17,0.35,0.33,0.52,0.5c0.18,0.19,0.35,0.39,0.52,0.59c0.14,0.16,0.29,0.3,0.42,0.47l42.994,53.971L415.996,329.667
	L415.996,329.667z"/>
<path style="fill:#C3DC4B;" d="M415.996,329.667v132.285c0,27.596-22.453,50.048-50.058,50.048H255.995V284.931l6.334,10.386
	l28.816-22.163c0.17-0.13,0.34-0.24,0.51-0.36c0.22-0.15,0.43-0.31,0.66-0.45c0.2-0.12,0.4-0.23,0.6-0.35
	c0.24-0.13,0.47-0.27,0.71-0.39c0.21-0.1,0.42-0.19,0.62-0.28c0.25-0.11,0.49-0.22,0.74-0.31c0.21-0.08,0.43-0.15,0.65-0.22
	c0.25-0.08,0.49-0.17,0.74-0.23c0.23-0.06,0.45-0.11,0.67-0.15c0.25-0.06,0.5-0.12,0.75-0.16c0.23-0.04,0.46-0.06,0.69-0.09
	c0.25-0.03,0.5-0.07,0.75-0.08c0.23-0.02,0.46-0.02,0.69-0.02c0.25-0.01,0.5-0.02,0.75-0.01c0.23,0,0.46,0.02,0.68,0.04
	c0.25,0.02,0.51,0.03,0.76,0.06c0.22,0.03,0.45,0.07,0.67,0.11c0.25,0.04,0.5,0.08,0.74,0.13c0.23,0.05,0.45,0.12,0.67,0.18
	c0.24,0.06,0.48,0.12,0.72,0.2c0.22,0.07,0.44,0.16,0.66,0.24c0.23,0.09,0.47,0.17,0.7,0.27c0.21,0.1,0.42,0.21,0.64,0.31
	c0.22,0.11,0.44,0.21,0.66,0.33c0.21,0.12,0.42,0.26,0.62,0.39c0.21,0.12,0.42,0.25,0.62,0.39c0.21,0.14,0.41,0.3,0.61,0.45
	c0.19,0.15,0.38,0.29,0.57,0.45c0.19,0.17,0.38,0.35,0.57,0.53c0.18,0.17,0.35,0.33,0.52,0.5c0.18,0.19,0.35,0.39,0.52,0.59
	c0.14,0.16,0.29,0.3,0.42,0.47l42.994,53.971H415.996z"/>
<path style="fill:#FFB13B;" d="M296.849,145.459c-23.243,0-42.153,18.91-42.153,42.153c0,23.242,18.91,42.152,42.153,42.152
	c23.243,0,42.153-18.91,42.153-42.152C339.002,164.369,320.092,145.459,296.849,145.459z"/>
<g>
	<path style="fill:#5A6384;" d="M299.31,449.895c0,8.295-6.724,15.009-15.009,15.009h-57.783c-8.295,0-15.008-6.714-15.008-15.009
		c0-8.285,6.714-15.009,15.008-15.009h57.783C292.586,434.886,299.31,441.61,299.31,449.895z"/>
	<path style="fill:#5A6384;" d="M342.394,0v48.918c0,14.478-11.777,26.255-26.245,26.255H194.67
		c-14.478,0-26.255-11.777-26.255-26.255V0H342.394z"/>
</g>
<g>
	<path style="fill:#445175;" d="M299.31,449.895c0,8.295-6.724,15.009-15.009,15.009h-28.306v-30.017h28.306
		C292.586,434.886,299.31,441.61,299.31,449.895z"/>
	<path style="fill:#445175;" d="M342.394,0v48.918c0,14.478-11.777,26.255-26.245,26.255h-60.154V0H342.394z"/>
</g>
<g>
</g>
<g>
</g>
<g>
</g>
<g>
</g>
<g>
</g>
<g>
</g>
<g>
</g>
<g>
</g>
<g>
</g>
<g>
</g>
<g>
</g>
<g>
</g>
<g>
</g>
<g>
</g>
<g>
</g>
</svg>
